# xmcd CD database file
#
# Track frame offsets:
#	150
#	3681
#	20508
#	37391
#	60479
#	84361
#	103213
#	123875
#	145719
#	160561
#	184241
#	200586
#	223198
#	244490
#	268171
#
# Disc length: 3931 seconds
#
# Revision: 2
# Processed by: cddbd v1.5.1PL2 Copyright (c) Steve Scherf et al.
# Submitted via: freeDBTagger 0.9.0.3
#
DISCID=dd0f590f
DTITLE=YOSHIKA - timeless
DYEAR=2006
DGENRE=blues
TTITLE0=intro
TTITLE1=happiness
TTITLE2=Call Me
TTITLE3=nothing
TTITLE4=Sunshine feat.VERBAL
TTITLE5=STAY
TTITLE6=you&me
TTITLE7=Just Us
TTITLE8=one day feat.B-BANDJ
TTITLE9=human
TTITLE10=Ooh Child
TTITLE11=Come back to you
TTITLE12=alive feat.WISE
TTITLE13=can't control
TTITLE14=le go
EXTD=
EXTT0=
EXTT1=
EXTT2=
EXTT3=
EXTT4=
EXTT5=
EXTT6=
EXTT7=
EXTT8=
EXTT9=
EXTT10=
EXTT11=
EXTT12=
EXTT13=
EXTT14=
PLAYORDER=
